<?xml version="1.0" standalone="no"?>
<!DOCTYPE svg PUBLIC "-//W3C//DTD SVG 20010904//EN"
 "http://www.w3.org/TR/2001/REC-SVG-20010904/DTD/svg10.dtd">
<svg version="1.0" xmlns="http://www.w3.org/2000/svg"
 width="512.000000pt" height="512.000000pt" viewBox="0 0 512.000000 512.000000"
 preserveAspectRatio="xMidYMid meet">

<g transform="translate(0.000000,512.000000) scale(0.100000,-0.100000)"
fill="#000000" stroke="none">
<path d="M2295 4804 c-583 -59 -1066 -247 -1473 -573 -571 -457 -883 -1149
-811 -1799 55 -501 318 -942 760 -1273 52 -39 99 -74 106 -78 18 -10 -11 -138
-52 -234 -59 -139 -94 -186 -270 -365 l-170 -174 285 5 c268 4 291 6 388 30
226 59 404 154 589 315 l62 54 153 -31 c290 -58 375 -66 713 -66 333 0 449 10
702 61 428 86 822 269 1124 522 518 435 782 1086 704 1742 -41 351 -175 678
-394 965 -68 89 -254 278 -351 355 -348 277 -781 450 -1320 525 -110 16 -644
29 -745 19z m628 -309 c825 -87 1441 -468 1732 -1070 274 -566 200 -1229 -194
-1735 -296 -381 -761 -639 -1326 -735 -218 -37 -399 -49 -654 -42 -294 7 -515
40 -773 116 l-97 28 -85 -93 c-47 -51 -116 -115 -153 -144 -64 -48 -282 -165
-291 -155 -2 2 10 38 27 79 44 107 71 231 80 370 5 67 8 121 7 122 -1 1 -48
32 -106 69 -154 99 -252 179 -371 302 -205 213 -330 443 -391 726 -32 147 -32
426 1 577 150 706 699 1266 1465 1496 140 42 304 73 521 98 89 10 485 4 608
-9z"/>
</g>
</svg>
