<?xml version="1.0" encoding="utf-8"?>
<!-- Generator: Adobe Illustrator 27.6.1, SVG Export Plug-In . SVG Version: 6.00 Build 0)  -->
<svg version="1.1" id="Calque_1" xmlns="http://www.w3.org/2000/svg" xmlns:xlink="http://www.w3.org/1999/xlink" x="0px" y="0px"
	 viewBox="0 0 512 512" style="enable-background:new 0 0 512 512;" xml:space="preserve">
<style type="text/css">
	.st0{fill:#5C3E00;}
	.st1{fill:#FF2410;}
	.st2{fill:#E5FF4D;}
	.st3{fill:#040069;}
	.st4{fill:#1000D9;}
	.st5{fill:#888888;}
</style>
<g transform="translate(0.000000,512.000000) scale(0.100000,-0.100000)">
	<g id="XMLID_00000179606473439120394630000012599955302716561579_">
		<g>
			<path class="st0" style="fill:#5C3E00;" d="M4938,290.2c19-35,14-63-17-94l-29-29h-744h-743l-18,48c-39,111-165,202-285,205c-51,2-64-2-86-22
				c-32-30-34-78-6-113c14-19,33-27,72-32c57-8,112-36,128-67c11-19-8-19-990-19c-595,0-1000,4-1000,9c0,30,99,81,158,81
				c33,0,72,43,72,79c0,17-10,42-24,58c-22,25-30,28-85,26c-120-3-235-81-286-194l-26-59H629H228l-29,29c-31,31-36,59-17,94
				c22,42,38,46,166,47c123,0,124,0,150,29c15,15,36,43,47,61c38,63,66,75,170,75c114,0,130,10,138,91c7,65,31,111,75,140
				c74,50,156,39,227-31c64-64,99-63,170,4c59,56,106,70,175,51c32-9,49-9,70,0c35,14,47,41,53,111c6,65,26,110,71,157
				c81,87,202,104,308,45c35-20,65-49,93-89c52-74,77-84,145-60c89,32,176-3,219-86c39-77,85-86,156-30c44,34,53,37,114,37
				c84,0,123-25,158-103c31-65,71-89,123-71c56,20,124,6,176-35c70-54,118-47,153,23c29,57,82,98,135,106c88,14,178-56,193-149
				c8-49,42-86,80-86c16,0,46,12,68,27c28,19,56,28,96,31c66,5,100-10,158-68c44-45,67-49,127-24c48,20,126,14,162-13
				c15-11,36-35,47-53s32-46,47-61l26-29h209C4905,336.2,4915,335.2,4938,290.2z M2575,322.2c52,51,20,186-62,268s-217,114-268,62
				c-54-53-17-130,70-146c66-12,102-48,114-114C2445,305.2,2522,268.2,2575,322.2z M1955,636.2c90,17,122,86,66,142
				c-35,35-79,38-157,11c-75-26-128-73-164-145c-59-121-37-217,50-217c47,0,75,30,85,89C1845,579.2,1891,625.2,1955,636.2z"/>
			<path class="st1" style="fill:#FF2410;" d="M1277,4092.2c11-123-32-251-117-347c-23-27-45-48-48-48c-4,0-6,26-4,58c7,124-39,208-156,282
				c-83,52-108,82-182,210c-24,41-51,80-59,87c-23,18-76,16-99-4c-54-46-141-399-142-578l-1-60l-47,51c-79,84-122,194-122,310
				c0,182,109,505,235,694c46,69,159,184,177,178c5-2,21-37,34-78c61-181,147-299,318-439C1228,4274.2,1265,4219.2,1277,4092.2z"/>
			<path class="st1" style="fill:#FF2410;" d="M4559,1721.2c192-172,379-663,342-896c-14-82-69-192-124-246l-44-43l-1,73c-2,188-91,540-143,568
				c-10,6-33,10-52,10c-37,0-63-23-92-80c-53-106-105-171-173-214c-76-49-131-105-150-152l-13-31l-38,19c-21,10-57,22-81,26
				c-39,7-45,11-53,42c-5,19-7,76-5,125c7,142,43,195,249,361c41,34,92,82,113,107c62,75,130,198,161,290c16,48,35,87,41,87
				C4503,1767.2,4531,1746.2,4559,1721.2z"/>
			<path class="st2" style="fill:#E5FF4D;" d="M852,3897.2c82-49,103-101,77-192l-10-38H791H662l-11,31c-18,52-10,157,25,316l6,33l57-58
				C770,3957.2,821,3915.2,852,3897.2z"/>
			<path class="st2" style="fill:#E5FF4D;" d="M4544,777.2c16-83,23-226,12-237c-3-3-28,15-56,41c-55,52-113,81-178,92c-52,8-47,17,51,81
				c37,25,84,64,105,88c23,28,39,39,44,31C4525,867.2,4536,824.2,4544,777.2z"/>
			<path d="M2300,4012.2v-85h-170h-170v78c0,43,3,82,7,85c3,4,80,7,170,7h163V4012.2z"/>
			<polygon points="3158,4010.2 3161,3927.2 2990,3927.2 2820,3927.2 2820,4012.2 2820,4097.2 2988,4095.2 3155,4092.2 			"/>
			<path class="st3" style="fill:#040069;" d="M1620,3367.2v-130h-556H508l4,106c3,102,4,107,31,130l28,24h525h524V3367.2z"/>
			<path class="st3" style="fill:#040069;" d="M3330,3542.2v-135h-770h-770v135c0,137,10,185,42,198c19,8,1433,8,1453,1
				C3320,3727.2,3330,3683.2,3330,3542.2z"/>
			<path class="st3" style="fill:#040069;" d="M4608,3343.2l4-106h-556h-556v130v130h524h525l28-24C4604,3450.2,4605,3445.2,4608,3343.2z"/>
			<path d="M5085,375.2c25-45,30-64,30-123c-1-101-48-179-140-228l-40-22H2560c-2297,0-2376,1-2410,19c-96,50-144,128-145,231
				c0,80,19,128,72,181c56,56,88,68,201,72l103,4l62,63c66,67,143,105,212,105c31,0,35,4,58,54c35,76,89,131,165,168
				c58,29,76,33,147,33s89-4,147-33l66-32l55,29c31,16,81,33,111,36c53,7,56,9,67,44c21,65,50,114,101,167l49,52l-3,214l-3,213
				l-58,88c-144,216-409,421-785,607c-215,106-300,182-369,325c-56,118-63,174-62,505c0,257,2,302,18,347l17,52l-71,73
				c-115,120-175,266-175,430c0,218,118,572,265,793c90,136,216,241,319,266c112,26,143,4,174-129c43-187,127-313,300-452
				c112-91,171-157,211-237c82-165,60-419-51-580l-29-43h150h149l7,38c11,65,61,140,116,174l49,31v106c0,119,17,171,65,209
				c47,37,96,44,305,40c194-3,197-3,237-30c59-39,73-77,73-202v-106h90h90v106c0,125,14,163,73,202c40,27,43,27,237,30
				c209,4,258-3,305-40c48-38,65-90,65-209v-106l49-31c55-34,105-109,116-174l7-37l546-3c539-3,548-3,587-25c47-25,95-74,121-123
				c17-32,19-66,22-345c3-250,0-325-12-384c-30-144-111-274-221-358c-33-25-129-80-215-122c-366-183-625-385-767-598l-58-88l-3-341
				l-3-342l43-7c59-9,137-46,180-84l36-31l1,86c1,199,66,309,283,486c146,118,228,246,274,425c13,51,28,102,34,113
				c14,26,49,34,113,27c194-24,399-272,526-639c89-260,109-462,59-608c-25-70-57-134-94-187c-15-21-15-23,2-30
				C5004,473.2,5058,425.2,5085,375.2z M4921,196.2c31,31,36,59,17,94c-23,45-33,46-251,47h-209l-26,29c-15,15-36,43-47,61
				s-32,42-47,53c-36,27-114,33-162,13c-60-25-83-21-127,24c-58,58-92,73-158,68c-40-3-68-12-96-31c-22-15-52-27-68-27
				c-38,0-72,37-80,86c-15,93-105,163-193,149c-53-8-106-49-135-106c-35-70-83-77-153-23c-52,41-120,55-176,35c-52-18-92,6-123,71
				c-35,78-74,103-158,103c-61,0-70-3-114-37c-71-56-117-47-156,30c-43,83-130,118-219,86c-68-24-93-14-145,60c-28,40-58,69-93,89
				c-106,59-227,42-308-45c-45-47-65-92-71-157c-6-70-18-97-53-111c-21-9-38-9-70,0c-69,19-116,5-175-51c-71-67-106-68-170-4
				c-71,70-153,81-227,31c-44-29-68-75-75-140c-8-81-24-91-138-91c-104,0-132-12-170-75c-11-18-32-46-47-61c-26-29-27-29-150-29
				c-128-1-144-5-166-47c-19-35-14-63,17-94l29-29h401h400l26,59c51,113,166,191,286,194c55,2,63-1,85-26c14-16,24-41,24-58
				c0-36-39-79-72-79c-59,0-158-51-158-81c0-5,405-9,1000-9c982,0,1001,0,990,19c-16,31-71,59-128,67c-39,5-58,13-72,32
				c-28,35-26,83,6,113c22,20,35,24,86,22c120-3,246-94,285-205l18-48h743h744L4921,196.2z M4901,825.2c37,233-150,724-342,896
				c-28,25-56,46-63,46c-6,0-25-39-41-87c-31-92-99-215-161-290c-21-25-72-73-113-107c-206-166-242-219-249-361c-2-49,0-106,5-125
				c8-31,14-35,53-42c24-4,60-16,81-26l38-19l13,31c19,47,74,103,150,152c68,43,120,108,173,214c29,57,55,80,92,80c19,0,42-4,52-10
				c52-28,141-380,143-568l1-73l44,43C4832,633.2,4887,743.2,4901,825.2z M4612,3237.2l-4,106c-3,102-4,107-31,130l-28,24h-525h-524
				v-130v-130h556H4612z M4610,2973.2v94h-555h-555v-574v-574l93,92c169,167,371,304,677,459c177,90,242,144,290,242
				C4597,2787.2,4610,2854.2,4610,2973.2z M4556,540.2c11,11,4,154-12,237c-8,47-19,90-22,96c-5,8-21-3-44-31c-21-24-68-63-105-88
				c-98-64-103-73-51-81c65-11,123-40,178-92C4528,555.2,4553,537.2,4556,540.2z M3330,1538.2v340v339h-272c-287,1-292,1-316,47
				c-19,35-14,63,17,94l29,29h271h271v425v425h-770h-770v-209v-210l276-3l276-3l25-29c20-24,24-36,19-65c-10-66-7-65-314-71l-277-5
				l-3-342l-2-343h275c260,0,276-1,295-20c43-43,34-110-20-137c-18-9-98-13-287-13h-263v-259v-259l58,5c114,11,235-34,324-119l53-50
				l80-2c92-2,152-25,222-82l43-36l47,16c66,23,170,21,237-4c58-22,133-81,155-124c13-23,20-26,70-26c31-1,79-9,107-18l51-18l47,42
				l46,43l-2,233l-3,233l-277,5c-307,6-304,5-314,71c-5,29-1,41,19,65l25,29l276,3L3330,1538.2z M3330,3407.2v135
				c0,141-10,185-45,199c-20,7-1434,7-1453-1c-32-13-42-61-42-198v-135h770H3330z M3161,3927.2l-3,83l-3,82l-167,3l-168,2v-85v-85
				h170H3161z M2300,3927.2v85v85h-163c-90,0-167-3-170-7c-4-3-7-42-7-85v-78h170H2300z M1620,1919.2v574v574h-555H510v-94
				c0-119,13-186,50-261c48-98,113-152,290-242c304-153,511-293,678-459L1620,1919.2z M1620,3237.2v130v130h-524H571l-28-24
				c-27-23-28-28-31-130l-4-106h556H1620z M1160,3745.2c85,96,128,224,117,347c-12,127-49,182-213,316c-171,140-257,258-318,439
				c-13,41-29,76-34,78c-18,6-131-109-177-178c-126-189-235-512-235-694c0-116,43-226,122-310l47-51l1,60c1,179,88,532,142,578
				c23,20,76,22,99,4c8-7,35-46,59-87c74-128,99-158,182-210c117-74,163-158,156-282c-2-32,0-58,4-58
				C1115,3697.2,1137,3718.2,1160,3745.2z M929,3705.2c26,91,5,143-77,192c-31,18-82,60-113,92l-57,58l-6-33c-35-159-43-264-25-316
				l11-31h129h128L929,3705.2z"/>
			<path class="st4" style="fill:#1000D9;" d="M4610,3067.2v-94c0-119-13-186-50-261c-48-98-113-152-290-242c-306-155-508-292-677-459l-93-92v574v574h555
				H4610z"/>
			<path class="st5" style="fill:#888888;" d="M3330,1878.2v-340l-276-3l-276-3l-25-29c-20-24-24-36-19-65c10-66,7-65,314-71l277-5l3-233l2-233l-46-43
				l-47-42l-51,18c-28,9-76,17-107,18c-50,0-57,3-70,26c-22,43-97,102-155,124c-67,25-171,27-237,4l-47-16l-43,36
				c-70,57-130,80-222,82l-80,2l-53,50c-89,85-210,130-324,119l-58-5v259v259h263c189,0,269,4,287,13c54,27,63,94,20,137
				c-19,19-35,20-295,20h-275l2,343l3,342l277,5c307,6,304,5,314,71c5,29,1,41-19,65l-25,29l-276,3l-276,3v210v209h770h770v-425
				v-425h-271h-271l-29-29c-31-31-36-59-17-94c24-46,29-46,316-47h272V1878.2z"/>
			<path d="M2513,590.2c82-82,114-217,62-268c-53-54-130-17-146,70c-12,66-48,102-114,114c-87,16-124,93-70,146
				C2296,704.2,2431,672.2,2513,590.2z"/>
			<path d="M2021,778.2c56-56,24-125-66-142c-64-11-110-57-120-120c-10-59-38-89-85-89c-87,0-109,96-50,217c36,72,89,119,164,145
				C1942,816.2,1986,813.2,2021,778.2z"/>
			<path class="st4" style="fill:#1000D9;" d="M1620,2493.2v-574l-92,92c-167,166-374,306-678,459c-177,90-242,144-290,242c-37,75-50,142-50,261v94h555
				h555V2493.2z"/>
		</g>
		<g>
		</g>
	</g>
</g>
</svg>
