<?xml version="1.0" standalone="no"?>
<!DOCTYPE svg PUBLIC "-//W3C//DTD SVG 20010904//EN"
 "http://www.w3.org/TR/2001/REC-SVG-20010904/DTD/svg10.dtd">
<svg version="1.0" xmlns="http://www.w3.org/2000/svg"
 width="512.000000pt" height="512.000000pt" viewBox="0 0 512.000000 512.000000"
 preserveAspectRatio="xMidYMid meet">

<g transform="translate(0.000000,512.000000) scale(0.100000,-0.100000)"
fill="#000000" stroke="none">
<path d="M714 5111 c-103 -25 -229 -130 -319 -266 -147 -221 -265 -575 -265
-793 0 -164 60 -310 175 -430 l71 -73 -17 -52 c-16 -45 -18 -90 -18 -347 -1
-331 6 -387 62 -505 69 -143 154 -219 369 -325 376 -186 641 -391 785 -607
l58 -88 3 -213 3 -214 -49 -52 c-51 -53 -80 -102 -101 -167 -11 -35 -14 -37
-67 -44 -30 -3 -80 -20 -111 -36 l-55 -29 -66 32 c-58 29 -76 33 -147 33 -71
0 -89 -4 -147 -33 -76 -37 -130 -92 -165 -168 -23 -50 -27 -54 -58 -54 -69 0
-146 -38 -212 -105 l-62 -63 -103 -4 c-113 -4 -145 -16 -201 -72 -53 -53 -72
-101 -72 -181 1 -103 49 -181 145 -231 34 -18 113 -19 2410 -19 l2375 0 40 22
c92 49 139 127 140 228 0 59 -5 78 -30 123 -27 50 -81 98 -129 115 -17 7 -17
9 -2 30 37 53 69 117 94 187 50 146 30 348 -59 608 -127 367 -332 615 -526
639 -64 7 -99 -1 -113 -27 -6 -11 -21 -62 -34 -113 -46 -179 -128 -307 -274
-425 -217 -177 -282 -287 -283 -486 l-1 -86 -36 31 c-43 38 -121 75 -180 84
l-43 7 3 342 3 341 58 88 c142 213 401 415 767 598 86 42 182 97 215 122 110
84 191 214 221 358 12 59 15 134 12 384 -3 279 -5 313 -22 345 -26 49 -74 98
-121 123 -39 22 -48 22 -587 25 l-546 3 -7 37 c-11 65 -61 140 -116 174 l-49
31 0 106 c0 119 -17 171 -65 209 -47 37 -96 44 -305 40 -194 -3 -197 -3 -237
-30 -59 -39 -73 -77 -73 -202 l0 -106 -90 0 -90 0 0 106 c0 125 -14 163 -73
202 -40 27 -43 27 -237 30 -209 4 -258 -3 -305 -40 -48 -38 -65 -90 -65 -209
l0 -106 -49 -31 c-55 -34 -105 -109 -116 -174 l-7 -38 -149 0 -150 0 29 43
c111 161 133 415 51 580 -40 80 -99 146 -211 237 -173 139 -257 265 -300 452
-31 133 -62 155 -174 129z m32 -261 c61 -181 147 -299 318 -439 164 -134 201
-189 213 -316 11 -123 -32 -251 -117 -347 -23 -27 -45 -48 -48 -48 -4 0 -6 26
-4 58 7 124 -39 208 -156 282 -83 52 -108 82 -182 210 -24 41 -51 80 -59 87
-23 18 -76 16 -99 -4 -54 -46 -141 -399 -142 -578 l-1 -60 -47 51 c-79 84
-122 194 -122 310 0 182 109 505 235 694 46 69 159 184 177 178 5 -2 21 -37
34 -78z m1554 -835 l0 -85 -170 0 -170 0 0 78 c0 43 3 82 7 85 3 4 80 7 170 7
l163 0 0 -85z m858 -2 l3 -83 -171 0 -170 0 0 85 0 85 168 -2 167 -3 3 -82z
m-2306 -113 c82 -49 103 -101 77 -192 l-10 -38 -128 0 -129 0 -11 31 c-18 52
-10 157 25 316 l6 33 57 -58 c31 -32 82 -74 113 -92z m2433 -156 c35 -14 45
-58 45 -199 l0 -135 -770 0 -770 0 0 135 c0 137 10 185 42 198 19 8 1433 8
1453 1z m-1665 -374 l0 -130 -556 0 -556 0 4 106 c3 102 4 107 31 130 l28 24
525 0 524 0 0 -130z m2957 106 c27 -23 28 -28 31 -130 l4 -106 -556 0 -556 0
0 130 0 130 524 0 525 0 28 -24z m-1247 -661 l0 -425 -271 0 -271 0 -29 -29
c-31 -31 -36 -59 -17 -94 24 -46 29 -46 316 -47 l272 0 0 -339 0 -340 -276 -3
-276 -3 -25 -29 c-20 -24 -24 -36 -19 -65 10 -66 7 -65 314 -71 l277 -5 3
-233 2 -233 -46 -43 -47 -42 -51 18 c-28 9 -76 17 -107 18 -50 0 -57 3 -70 26
-22 43 -97 102 -155 124 -67 25 -171 27 -237 4 l-47 -16 -43 36 c-70 57 -130
80 -222 82 l-80 2 -53 50 c-89 85 -210 130 -324 119 l-58 -5 0 259 0 259 263
0 c189 0 269 4 287 13 54 27 63 94 20 137 -19 19 -35 20 -295 20 l-275 0 2
343 3 342 277 5 c307 6 304 5 314 71 5 29 1 41 -19 65 l-25 29 -276 3 -276 3
0 210 0 209 770 0 770 0 0 -425z m-1710 -319 l0 -574 -92 92 c-167 166 -374
306 -678 459 -177 90 -242 144 -290 242 -37 75 -50 142 -50 261 l0 94 555 0
555 0 0 -574z m2990 480 c0 -119 -13 -186 -50 -261 -48 -98 -113 -152 -290
-242 -306 -155 -508 -292 -677 -459 l-93 -92 0 574 0 574 555 0 555 0 0 -94z
m-51 -1252 c192 -172 379 -663 342 -896 -14 -82 -69 -192 -124 -246 l-44 -43
-1 73 c-2 188 -91 540 -143 568 -10 6 -33 10 -52 10 -37 0 -63 -23 -92 -80
-53 -106 -105 -171 -173 -214 -76 -49 -131 -105 -150 -152 l-13 -31 -38 19
c-21 10 -57 22 -81 26 -39 7 -45 11 -53 42 -5 19 -7 76 -5 125 7 142 43 195
249 361 41 34 92 82 113 107 62 75 130 198 161 290 16 48 35 87 41 87 7 0 35
-21 63 -46z m-2557 -651 c35 -20 65 -49 93 -89 52 -74 77 -84 145 -60 89 32
176 -3 219 -86 39 -77 85 -86 156 -30 44 34 53 37 114 37 84 0 123 -25 158
-103 31 -65 71 -89 123 -71 56 20 124 6 176 -35 70 -54 118 -47 153 23 29 57
82 98 135 106 88 14 178 -56 193 -149 8 -49 42 -86 80 -86 16 0 46 12 68 27
28 19 56 28 96 31 66 5 100 -10 158 -68 44 -45 67 -49 127 -24 48 20 126 14
162 -13 15 -11 36 -35 47 -53 11 -18 32 -46 47 -61 l26 -29 209 0 c218 -1 228
-2 251 -47 19 -35 14 -63 -17 -94 l-29 -29 -744 0 -743 0 -18 48 c-39 111
-165 202 -285 205 -51 2 -64 -2 -86 -22 -32 -30 -34 -78 -6 -113 14 -19 33
-27 72 -32 57 -8 112 -36 128 -67 11 -19 -8 -19 -990 -19 -595 0 -1000 4
-1000 9 0 30 99 81 158 81 33 0 72 43 72 79 0 17 -10 42 -24 58 -22 25 -30 28
-85 26 -120 -3 -235 -81 -286 -194 l-26 -59 -400 0 -401 0 -29 29 c-31 31 -36
59 -17 94 22 42 38 46 166 47 123 0 124 0 150 29 15 15 36 43 47 61 38 63 66
75 170 75 114 0 130 10 138 91 7 65 31 111 75 140 74 50 156 39 227 -31 64
-64 99 -63 170 4 59 56 106 70 175 51 32 -9 49 -9 70 0 35 14 47 41 53 111 6
65 26 110 71 157 81 87 202 104 308 45z m2542 -293 c16 -83 23 -226 12 -237
-3 -3 -28 15 -56 41 -55 52 -113 81 -178 92 -52 8 -47 17 51 81 37 25 84 64
105 88 23 28 39 39 44 31 3 -6 14 -49 22 -96z"/>
<path d="M1864 792 c-75 -26 -128 -73 -164 -145 -59 -121 -37 -217 50 -217 47
0 75 30 85 89 10 63 56 109 120 120 90 17 122 86 66 142 -35 35 -79 38 -157
11z"/>
<path d="M2245 655 c-54 -53 -17 -130 70 -146 66 -12 102 -48 114 -114 16 -87
93 -124 146 -70 52 51 20 186 -62 268 -82 82 -217 114 -268 62z"/>
</g>
</svg>
