<?xml version="1.0" standalone="no"?>
<!DOCTYPE svg PUBLIC "-//W3C//DTD SVG 20010904//EN"
 "http://www.w3.org/TR/2001/REC-SVG-20010904/DTD/svg10.dtd">
<svg version="1.0" xmlns="http://www.w3.org/2000/svg"
 width="512.000000pt" height="512.000000pt" viewBox="0 0 512.000000 512.000000"
 preserveAspectRatio="xMidYMid meet">

<g transform="translate(0.000000,512.000000) scale(0.100000,-0.100000)"
fill="#000000" stroke="none">
<path d="M2490 5093 c-157 -93 -396 -316 -513 -480 -203 -285 -330 -620 -368
-968 -16 -152 -5 -386 29 -635 l29 -205 -275 -320 c-314 -366 -327 -386 -327
-510 1 -64 5 -90 25 -130 31 -64 91 -124 155 -155 49 -24 56 -25 312 -28 l261
-3 6 -37 c3 -20 13 -91 21 -157 9 -66 21 -133 27 -148 15 -39 56 -57 128 -57
l61 0 -3 -217 -3 -218 -29 -53 c-35 -62 -77 -102 -147 -137 -46 -24 -50 -24
-55 -8 -36 109 -76 175 -150 243 -65 58 -155 104 -241 120 -61 12 -62 13 -99
74 -47 76 -153 180 -227 225 -219 130 -467 145 -682 41 -247 -119 -425 -385
-425 -635 0 -94 26 -192 76 -295 40 -79 62 -109 133 -180 99 -97 165 -139 288
-184 l88 -31 769 -3 c575 -2 777 0 798 9 49 20 70 81 46 134 -26 56 -5 55
-797 55 -488 0 -748 4 -783 11 -231 47 -418 268 -418 493 0 103 64 239 157
332 173 173 393 210 605 103 61 -31 188 -141 188 -163 0 -6 -28 -27 -61 -46
-85 -48 -129 -99 -129 -149 0 -45 34 -86 80 -96 32 -7 52 2 117 51 185 141
451 28 479 -203 15 -127 66 -155 222 -118 183 43 338 190 384 364 13 52 17
111 17 274 l1 207 300 0 300 0 1 -207 c0 -163 4 -222 17 -274 46 -174 201
-321 384 -364 156 -37 207 -9 222 118 28 231 294 344 479 203 65 -49 85 -58
117 -51 47 10 80 51 80 98 0 35 -6 47 -48 87 -26 25 -72 58 -101 73 l-53 26
62 65 c130 136 325 195 495 151 192 -51 361 -230 397 -423 44 -236 -151 -497
-410 -551 -36 -7 -292 -11 -783 -11 -612 0 -734 -2 -758 -14 -66 -35 -66 -137
0 -172 44 -22 1467 -21 1577 2 382 79 643 449 568 805 -37 172 -160 349 -319
458 -227 155 -523 159 -774 10 -74 -45 -180 -149 -227 -225 -37 -61 -38 -62
-99 -74 -86 -16 -176 -62 -241 -120 -74 -68 -114 -134 -150 -243 -5 -16 -9
-16 -55 8 -70 35 -112 75 -147 137 l-29 53 -3 218 -3 217 61 0 c72 0 113 18
128 57 6 15 18 82 27 148 8 66 18 137 21 157 l6 37 261 3 c256 3 263 4 312 28
64 32 124 92 155 155 19 39 24 67 24 130 1 123 -12 144 -326 510 l-275 320 29
205 c63 451 45 730 -66 1065 -98 293 -239 525 -450 744 -153 157 -347 301
-405 301 -14 0 -46 -12 -71 -27z m161 -257 c82 -62 242 -220 288 -285 l22 -31
-401 0 -401 0 22 33 c59 83 346 346 379 347 3 0 44 -29 91 -64z m454 -540 c32
-48 106 -228 139 -338 55 -184 70 -288 71 -503 0 -185 -2 -208 -94 -892 l-95
-703 -566 0 -566 0 -94 698 c-65 484 -95 739 -98 834 -9 288 47 553 175 829
l46 99 533 0 534 0 15 -24z m-1356 -2101 c23 -176 41 -324 41 -328 0 -4 -103
-7 -229 -5 l-230 3 -30 29 c-34 33 -48 81 -34 121 11 33 425 518 433 508 4 -5
25 -152 49 -328z m1896 80 c108 -126 201 -241 207 -255 15 -39 2 -91 -32 -125
l-30 -30 -230 -3 c-127 -2 -230 1 -230 5 -1 16 82 638 86 652 6 18 -12 37 229
-244z m-549 -642 c-3 -16 -8 -53 -11 -83 -4 -30 -9 -63 -11 -72 -5 -17 -38
-18 -514 -18 -476 0 -509 1 -514 18 -2 9 -7 42 -11 72 -3 30 -8 67 -11 83 l-6
27 542 0 542 0 -6 -27z"/>
<path d="M2443 3846 c-181 -44 -334 -202 -372 -384 -35 -166 15 -330 138 -453
199 -199 503 -199 702 0 199 199 199 503 0 702 -126 126 -299 176 -468 135z
m251 -220 c105 -51 161 -144 161 -266 0 -85 -21 -142 -74 -203 -82 -92 -237
-121 -353 -64 -160 79 -215 278 -118 430 80 126 246 170 384 103z"/>
<path d="M2511 186 c-87 -48 -50 -186 49 -186 51 0 100 49 100 99 0 75 -83
124 -149 87z"/>
</g>
</svg>
