<?xml version="1.0" encoding="utf-8"?>
<!-- Generator: Adobe Illustrator 27.6.1, SVG Export Plug-In . SVG Version: 6.00 Build 0)  -->
<svg version="1.1" id="Calque_1" xmlns="http://www.w3.org/2000/svg" xmlns:xlink="http://www.w3.org/1999/xlink" x="0px" y="0px"
	 viewBox="0 0 512 512" style="enable-background:new 0 0 512 512;" xml:space="preserve">
<style type="text/css">
	.st0{fill:#1000D9;}
	.st1{fill:#888888;}
	.st2{fill:#040069;}
	.st3{fill:#12C0FF;}
</style>
<g transform="translate(0.000000,512.000000) scale(0.100000,-0.100000)">
	<g id="XMLID_00000026847524136614208140000007598137225999273905_">
		<g>
			<path d="M5106,821c75-356-186-726-568-805C4428-7,3005-8,2961,14c-66,35-66,137,0,172c24,12,146,14,758,14c491,0,747,4,783,11
				c259,54,454,315,410,551c-36,193-205,372-397,423c-170,44-365-15-495-151l-62-65l53-26c29-15,75-48,101-73c42-40,48-52,48-87
				c0-47-33-88-80-98c-32-7-52,2-117,51c-185,141-451,28-479-203c-15-127-66-155-222-118c-183,43-338,190-384,364
				c-13,52-17,111-17,274l-1,207h-300h-300l-1-207c0-163-4-222-17-274c-46-174-201-321-384-364c-156-37-207-9-222,118
				c-28,231-294,344-479,203c-65-49-85-58-117-51c-46,10-80,51-80,96c0,50,44,101,129,149c33,19,61,40,61,46c0,22-127,132-188,163
				c-212,107-432,70-605-103c-93-93-157-229-157-332c0-225,187-446,418-493c35-7,295-11,783-11c792,0,771,1,797-55
				c24-53,3-114-46-134c-21-9-223-11-798-9L585,5l-88,31c-123,45-189,87-288,184c-71,71-93,101-133,180C26,503,0,601,0,695
				c0,250,178,516,425,635c215,104,463,89,682-41c74-45,180-149,227-225c37-61,38-62,99-74c86-16,176-62,241-120
				c74-68,114-134,150-243c5-16,9-16,55,8c70,35,112,75,147,137l29,53l3,218l3,217h-61c-72,0-113,18-128,57c-6,15-18,82-27,148
				c-8,66-18,137-21,157l-6,37l-261,3c-256,3-263,4-312,28c-64,31-124,91-155,155c-20,40-24,66-25,130c0,124,13,144,327,510l275,320
				l-29,205c-34,249-45,483-29,635c38,348,165,683,368,968c117,164,356,387,513,480c25,15,57,27,71,27c58,0,252-144,405-301
				c211-219,352-451,450-744c111-335,129-614,66-1065l-29-205l275-320c314-366,327-387,326-510c0-63-5-91-24-130
				c-31-63-91-123-155-155c-49-24-56-25-312-28l-261-3l-6-37c-3-20-13-91-21-157c-9-66-21-133-27-148c-15-39-56-57-128-57h-61l3-217
				l3-218l29-53c35-62,77-102,147-137c46-24,50-24,55-8c36,109,76,175,150,243c65,58,155,104,241,120c61,12,62,13,99,74
				c47,76,153,180,227,225c251,149,547,145,774-10C4946,1170,5069,993,5106,821z M3820,1895c34,34,47,86,32,125
				c-6,14-99,129-207,255c-241,281-223,262-229,244c-4-14-87-636-86-652c0-4,103-7,230-5l230,3L3820,1895z M3221,2563
				c92,684,94,707,94,892c-1,215-16,319-71,503c-33,110-107,290-139,338l-15,24h-534h-533l-46-99c-128-276-184-541-175-829
				c3-95,33-350,98-834l94-698h566h566L3221,2563z M3096,1633l6,27h-542h-542l6-27c3-16,8-53,11-83c4-30,9-63,11-72
				c5-17,38-18,514-18s509,1,514,18c2,9,7,42,11,72C3088,1580,3093,1617,3096,1633z M2961,4520l-22,31c-46,65-206,223-288,285
				c-47,35-88,64-91,64c-33-1-320-264-379-347l-22-33h401H2961z M1790,1867c0,4-18,152-41,328c-24,176-45,323-49,328
				c-8,10-422-475-433-508c-14-40,0-88,34-121l30-29l230-3C1687,1860,1790,1863,1790,1867z"/>
			<path class="st0" style="fill:#1000D9;" d="M3852,2020c15-39,2-91-32-125l-30-30l-230-3c-127-2-230,1-230,5c-1,16,82,638,86,652c6,18-12,37,229-244
				C3753,2149,3846,2034,3852,2020z"/>
			<path class="st1" style="fill:#888888;" d="M3315,3455c0-185-2-208-94-892l-95-703h-566h-566l-94,698c-65,484-95,739-98,834c-9,288,47,553,175,829
				l46,99h533h534l15-24c32-48,106-228,139-338C3299,3774,3314,3670,3315,3455z M2911,3009c199,199,199,503,0,702
				c-126,126-299,176-468,135c-181-44-334-202-372-384c-35-166,15-330,138-453C2408,2810,2712,2810,2911,3009z"/>
			<path class="st2" style="fill:#040069;" d="M3102,1660l-6-27c-3-16-8-53-11-83c-4-30-9-63-11-72c-5-17-38-18-514-18s-509,1-514,18c-2,9-7,42-11,72
				c-3,30-8,67-11,83l-6,27h542H3102z"/>
			<path class="st0" style="fill:#1000D9;" d="M2939,4551l22-31h-401h-401l22,33c59,83,346,346,379,347c3,0,44-29,91-64C2733,4774,2893,4616,2939,4551z"/>
			<path d="M2911,3711c199-199,199-503,0-702s-503-199-702,0c-123,123-173,287-138,453c38,182,191,340,372,384
				C2612,3887,2785,3837,2911,3711z M2781,3157c53,61,74,118,74,203c0,122-56,215-161,266c-138,67-304,23-384-103
				c-97-152-42-351,118-430C2544,3036,2699,3065,2781,3157z"/>
			<path class="st3" style="fill:#12C0FF;" d="M2855,3360c0-85-21-142-74-203c-82-92-237-121-353-64c-160,79-215,278-118,430c80,126,246,170,384,103
				C2799,3575,2855,3482,2855,3360z"/>
			<path d="M2660,99c0-50-49-99-100-99c-99,0-136,138-49,186C2577,223,2660,174,2660,99z"/>
			<path class="st0" style="fill:#1000D9;" d="M1749,2195c23-176,41-324,41-328s-103-7-229-5l-230,3l-30,29c-34,33-48,81-34,121c11,33,425,518,433,508
				C1704,2518,1725,2371,1749,2195z"/>
		</g>
		<g>
		</g>
	</g>
</g>
</svg>
