<?xml version="1.0" standalone="no"?>
<!DOCTYPE svg PUBLIC "-//W3C//DTD SVG 20010904//EN"
 "http://www.w3.org/TR/2001/REC-SVG-20010904/DTD/svg10.dtd">
<svg version="1.0" xmlns="http://www.w3.org/2000/svg"
 width="754.000000pt" height="932.000000pt" viewBox="0 0 754.000000 932.000000"
 preserveAspectRatio="xMidYMid meet">

<g transform="translate(0.000000,932.000000) scale(0.100000,-0.100000)"
fill="#000000" stroke="none">
<path d="M2505 9263 c-82 -8 -173 -28 -203 -44 -18 -11 -40 -19 -48 -19 -8 0
-14 -4 -14 -10 0 -6 -27 -10 -60 -10 -33 0 -60 -4 -60 -10 0 -15 -97 -13 -102
2 -4 10 -10 10 -32 0 -15 -6 -35 -12 -44 -12 -10 0 -24 -9 -32 -20 -8 -11 -22
-20 -32 -20 -10 0 -18 -4 -18 -10 0 -5 -13 -10 -30 -10 -16 0 -30 -4 -30 -10
0 -5 -18 -10 -40 -10 -25 0 -40 -5 -40 -12 0 -9 -3 -8 -10 2 -7 12 -12 12 -22
2 -10 -10 -10 -15 2 -22 10 -7 11 -10 3 -10 -8 0 -13 -13 -13 -30 0 -16 -4
-30 -10 -30 -5 0 -10 -7 -10 -16 0 -24 -23 -41 -80 -60 -28 -9 -54 -23 -57
-30 -3 -8 -13 -14 -22 -14 -19 0 -87 -81 -108 -130 -9 -19 -20 -43 -25 -54
-18 -36 -12 -142 11 -179 11 -19 21 -44 21 -56 0 -11 5 -21 10 -21 6 0 10 -5
10 -11 0 -6 11 -24 25 -41 24 -28 34 -81 17 -92 -8 -5 -6 -90 4 -257 l7 -95
-29 -22 c-16 -12 -34 -26 -41 -32 -8 -6 -13 -5 -16 3 -3 9 -8 9 -18 -1 -11
-10 -11 -15 -2 -20 9 -6 7 -12 -7 -22 -11 -8 -20 -23 -20 -33 0 -13 -5 -17
-14 -14 -11 4 -13 1 -9 -10 5 -12 2 -15 -10 -10 -11 4 -14 2 -10 -9 3 -7 0
-14 -6 -14 -6 0 -11 -7 -11 -16 0 -8 -27 -42 -60 -74 -33 -32 -60 -66 -60 -74
0 -9 -4 -16 -10 -16 -5 0 -10 -7 -10 -16 0 -9 -13 -29 -30 -44 -16 -15 -30
-35 -30 -44 0 -9 -4 -16 -10 -16 -5 0 -10 -8 -10 -18 0 -10 -9 -24 -20 -32
-11 -8 -20 -22 -20 -32 0 -10 -4 -18 -10 -18 -5 0 -10 -9 -10 -20 0 -11 -4
-20 -10 -20 -5 0 -10 -9 -10 -20 0 -11 -4 -20 -10 -20 -5 0 -10 -9 -10 -20 0
-11 -4 -20 -10 -20 -5 0 -10 -9 -10 -20 0 -11 -4 -20 -10 -20 -5 0 -10 -13
-10 -30 0 -16 -4 -30 -10 -30 -5 0 -10 -13 -10 -30 0 -16 -4 -30 -10 -30 -5 0
-10 -9 -10 -20 0 -11 -4 -20 -10 -20 -5 0 -10 -18 -10 -40 0 -22 -4 -40 -10
-40 -5 0 -10 -13 -10 -30 0 -16 -4 -30 -10 -30 -5 0 -10 -9 -10 -20 0 -11 -4
-20 -10 -20 -5 0 -10 -13 -10 -30 0 -16 -4 -30 -10 -30 -5 0 -10 -9 -10 -20 0
-11 -4 -20 -10 -20 -5 0 -10 -9 -10 -20 0 -11 -4 -20 -10 -20 -5 0 -10 -9 -10
-20 0 -11 -4 -20 -10 -20 -5 0 -10 -9 -10 -20 0 -11 -4 -20 -10 -20 -5 0 -10
-9 -10 -20 0 -11 -4 -20 -10 -20 -5 0 -10 -9 -10 -20 0 -11 -4 -20 -10 -20 -5
0 -10 -9 -10 -20 0 -11 -4 -20 -10 -20 -5 0 -10 -18 -10 -40 0 -22 -4 -40 -10
-40 -5 0 -10 -9 -10 -20 0 -11 -4 -20 -10 -20 -5 0 -10 -18 -10 -40 0 -22 -4
-40 -10 -40 -5 0 -10 -12 -10 -26 0 -15 -8 -34 -18 -43 -21 -18 -29 -46 -44
-141 -18 -118 -8 -163 42 -192 17 -10 33 -25 37 -35 4 -10 15 -25 25 -34 10
-9 18 -25 18 -36 0 -12 7 -26 16 -34 11 -9 14 -22 10 -42 -3 -17 -1 -36 5 -43
6 -7 13 -64 15 -125 4 -109 4 -113 -23 -148 -15 -20 -44 -53 -65 -73 -21 -20
-38 -44 -38 -52 0 -9 -4 -16 -10 -16 -5 0 -10 -7 -10 -16 0 -8 -18 -33 -40
-54 -22 -21 -40 -45 -40 -52 0 -7 -9 -20 -20 -28 -11 -8 -20 -20 -20 -28 0 -7
-22 -35 -50 -62 -27 -27 -50 -55 -50 -62 0 -8 -9 -20 -20 -28 -11 -8 -20 -22
-20 -32 0 -10 -4 -18 -10 -18 -5 0 -10 -7 -10 -16 0 -9 -13 -29 -30 -44 -16
-15 -30 -35 -30 -44 0 -9 -4 -16 -10 -16 -5 0 -10 -8 -10 -18 0 -10 -9 -24
-20 -32 -11 -8 -20 -21 -20 -28 0 -8 -13 -27 -30 -42 -16 -15 -30 -35 -30 -44
0 -9 -4 -16 -10 -16 -5 0 -10 -13 -10 -30 0 -16 -4 -30 -10 -30 -6 0 -10 -57
-10 -150 0 -93 4 -150 10 -150 6 0 10 -9 10 -20 0 -11 5 -20 10 -20 6 0 10 -7
10 -15 0 -8 34 -49 75 -90 53 -54 82 -75 100 -75 14 0 25 -4 25 -10 0 -5 23
-10 50 -10 28 0 50 -4 50 -10 0 -6 33 -10 80 -10 l80 0 0 -50 c0 -27 -4 -50
-10 -50 -5 0 -10 -9 -10 -20 0 -11 -4 -20 -10 -20 -5 0 -10 -13 -10 -30 0 -16
-4 -30 -10 -30 -5 0 -10 -9 -10 -20 0 -11 -4 -20 -10 -20 -5 0 -10 -13 -10
-30 0 -16 -4 -30 -10 -30 -5 0 -10 -9 -10 -20 0 -11 -4 -20 -10 -20 -5 0 -10
-9 -10 -20 0 -11 -4 -20 -10 -20 -5 0 -10 -9 -10 -20 0 -11 -4 -20 -10 -20 -6
0 -10 -43 -10 -110 0 -67 4 -110 10 -110 6 0 10 -7 10 -16 0 -9 10 -25 22 -35
l21 -19 -21 -19 c-15 -12 -22 -30 -22 -55 0 -20 -4 -36 -10 -36 -6 0 -10 -47
-10 -120 0 -101 2 -120 15 -120 20 0 145 -125 145 -145 0 -8 5 -15 10 -15 6 0
10 -73 10 -200 0 -127 4 -200 10 -200 6 0 10 -40 10 -100 0 -60 4 -100 10
-100 6 0 10 -13 10 -30 0 -16 5 -30 10 -30 6 0 10 -13 10 -28 0 -16 8 -34 20
-42 11 -8 20 -22 20 -32 0 -10 5 -18 10 -18 6 0 10 -7 10 -15 0 -27 127 -145
155 -145 14 0 25 -4 25 -10 0 -5 14 -10 30 -10 17 0 30 -4 30 -10 0 -5 14 -10
30 -10 17 0 30 -4 30 -10 0 -6 27 -10 60 -10 33 0 60 -4 60 -10 0 -5 9 -10 20
-10 11 0 20 -4 20 -10 0 -5 9 -10 20 -10 11 0 20 -4 20 -10 0 -5 14 -10 30
-10 17 0 30 -4 30 -10 0 -5 8 -10 18 -10 10 0 24 -9 32 -20 8 -11 22 -20 32
-20 10 0 18 -4 18 -10 0 -5 9 -10 20 -10 11 0 20 -4 20 -10 0 -5 9 -10 20 -10
11 0 20 -4 20 -10 0 -5 18 -10 40 -10 22 0 40 -4 40 -10 0 -5 14 -10 30 -10
17 0 30 -4 30 -10 0 -5 23 -10 50 -10 28 0 50 -4 50 -10 0 -6 27 -10 60 -10
33 0 60 -4 60 -10 0 -6 37 -10 90 -10 53 0 90 -4 90 -10 0 -6 47 -10 120 -10
73 0 120 -4 120 -10 0 -5 11 -10 25 -10 31 0 71 -38 78 -71 4 -23 4 -23 6 -1
1 18 7 22 37 22 30 0 44 -9 94 -60 32 -33 64 -60 70 -60 6 0 31 -20 55 -45
l45 -44 0 -286 c0 -280 0 -285 19 -273 30 19 61 -4 104 -77 28 -48 43 -65 59
-65 12 0 79 25 150 55 70 30 131 55 134 55 3 0 31 12 62 26 31 14 77 35 102
46 130 58 265 128 347 180 51 32 95 58 98 58 4 0 21 11 39 25 18 14 36 25 39
25 9 0 328 216 517 350 54 39 102 70 105 70 3 0 21 11 39 25 18 14 36 25 41
25 4 0 53 30 109 67 107 71 126 82 203 124 26 15 117 68 201 118 84 50 156 91
161 91 4 0 29 16 54 35 25 19 49 35 52 35 4 0 19 8 33 19 15 10 63 37 107 61
44 24 91 50 105 60 14 9 54 31 90 50 67 35 126 77 182 129 18 17 36 31 40 31
3 0 35 24 70 53 36 28 82 66 103 82 21 17 92 81 157 144 65 63 127 120 137
127 10 8 51 56 91 108 66 87 72 99 81 163 20 136 44 226 139 518 63 195 89
288 111 392 4 23 20 75 34 115 14 40 39 123 56 183 37 133 121 404 155 500 33
95 94 297 110 365 22 100 121 382 169 485 64 138 91 214 117 340 19 88 22 137
23 397 1 164 4 301 8 304 3 4 -7 32 -22 63 -16 31 -34 81 -41 111 -7 30 -17
72 -22 92 -5 20 -15 44 -23 52 -8 8 -15 26 -15 40 0 14 -4 26 -10 26 -6 0 -10
40 -10 100 0 60 -4 100 -10 100 -5 0 -10 14 -10 30 0 17 -4 30 -10 30 -6 0
-10 37 -10 90 0 53 -4 90 -10 90 -5 0 -10 23 -10 50 0 28 -4 50 -10 50 -5 0
-10 18 -10 40 0 22 -4 40 -10 40 -5 0 -10 9 -10 20 0 11 -4 20 -10 20 -6 0
-10 40 -10 100 0 60 -4 100 -10 100 -5 0 -10 13 -10 28 0 16 -8 34 -20 42 -11
8 -20 22 -20 32 0 10 -4 18 -10 18 -5 0 -10 8 -10 18 0 10 -9 24 -20 32 -11 8
-20 20 -20 27 0 16 -145 163 -160 163 -6 0 -24 14 -40 30 -16 17 -35 30 -42
30 -8 0 -20 9 -28 20 -8 11 -21 20 -28 20 -7 0 -31 18 -52 40 -21 22 -46 40
-54 40 -9 0 -16 5 -16 10 0 6 -9 10 -20 10 -11 0 -20 5 -20 10 0 6 -9 10 -20
10 -11 0 -20 5 -20 10 0 6 -13 10 -30 10 -16 0 -30 5 -30 10 0 6 -9 10 -20 10
-11 0 -20 5 -20 10 0 6 -9 10 -20 10 -11 0 -20 5 -20 10 0 6 -13 10 -30 10
-16 0 -30 5 -30 10 0 6 -9 10 -20 10 -11 0 -20 5 -20 10 0 6 -13 10 -30 10
-16 0 -30 5 -30 10 0 6 -13 10 -30 10 -16 0 -30 5 -30 10 0 6 -22 10 -50 10
-27 0 -50 5 -50 10 0 6 -13 10 -30 10 -16 0 -30 5 -30 10 0 6 -12 10 -26 10
-16 0 -37 12 -54 30 -23 24 -36 30 -70 30 -34 0 -47 6 -70 30 -15 17 -35 30
-44 30 -9 0 -16 5 -16 10 0 6 -9 10 -20 10 -11 0 -20 5 -20 10 0 6 -9 10 -20
10 -11 0 -20 5 -20 10 0 6 -22 10 -50 10 -47 0 -50 2 -50 26 0 40 -41 72 -53
42 -3 -7 -6 2 -6 20 -1 30 -3 32 -39 32 -35 0 -119 37 -211 93 -39 24 -184 52
-189 37 -2 -6 -17 -10 -33 -10 -16 0 -29 -4 -29 -10 0 -5 -9 -10 -20 -10 -11
0 -20 -4 -20 -10 0 -5 -9 -10 -20 -10 -11 0 -20 -5 -20 -11 0 -6 -6 -9 -14 -6
-9 4 -12 0 -9 -13 3 -12 -5 -29 -21 -44 -21 -22 -34 -26 -81 -26 -30 0 -55 -4
-55 -10 0 -5 -13 -10 -30 -10 -27 0 -30 3 -30 30 0 17 5 30 10 30 6 0 10 18
10 40 0 22 5 40 10 40 15 0 12 29 -4 46 -8 8 -26 14 -40 14 -14 0 -26 5 -26
10 0 6 -9 10 -19 10 -11 0 -21 5 -23 11 -2 6 -43 15 -90 20 -48 5 -106 13
-130 18 -27 6 -47 6 -52 0 -14 -13 -104 -11 -108 3 -10 28 -218 21 -218 -8 0
-8 -20 -35 -45 -59 -44 -44 -46 -45 -110 -45 -37 0 -65 4 -65 10 0 6 -8 10
-18 10 -10 0 -24 9 -32 20 -8 11 -21 20 -30 20 -9 0 -22 9 -30 20 -13 18 -26
20 -108 20 -85 0 -95 2 -117 25 -14 13 -25 31 -25 40 0 8 -7 15 -16 15 -9 0
-29 14 -44 30 -27 29 -31 30 -114 30 -51 0 -86 -4 -86 -10 0 -5 -13 -10 -28
-10 -16 0 -34 -8 -42 -20 -8 -11 -22 -20 -32 -20 -10 0 -18 -4 -18 -10 0 -22
-53 -9 -80 20 -15 17 -35 30 -44 30 -9 0 -16 5 -16 10 0 6 -18 10 -40 10 -22
0 -40 5 -40 10 0 6 -18 10 -40 10 -22 0 -40 5 -40 10 0 6 -13 10 -29 10 -16 0
-31 4 -33 9 -3 11 -67 18 -113 14z"/>
<path d="M4294 1168 c-46 -34 -51 -41 -18 -25 27 14 64 47 52 47 -3 0 -18 -10
-34 -22z"/>
</g>
</svg>
